Coordinates
version=1
nRows=29
nColumns=24
inDegrees=yes

Units are S.I. units (second, meters, Newtons, ...)
Angles are in degrees.

endheader
time	pelvis_tilt	pelvis_list	pelvis_rotation	pelvis_tx	pelvis_ty	pelvis_tz	hip_flexion_r	hip_adduction_r	hip_rotation_r	knee_angle_r	ankle_angle_r	subtalar_angle_r	mtp_angle_r	hip_flexion_l	hip_adduction_l	hip_rotation_l	knee_angle_l	ankle_angle_l	subtalar_angle_l	mtp_angle_l	lumbar_extension	lumbar_bending	lumbar_rotation
      0.01000000	     39.04906707	      1.84210841	     -3.13229705	      0.68392718	      1.06952006	     -0.32874883	     38.50444363	     -4.50079091	      2.27091974	    -25.43599890	    -31.57577395	      0.00000000	      0.00000000	     27.37716669	    -15.67859670	     -6.71186439	    -68.47513717	    -14.42504165	      0.00000000	      0.00000000	      0.00000000	      0.00000000	      0.00000000
      0.02000000	     39.04417167	      1.83998967	     -3.13923182	      0.68392299	      1.06953542	     -0.32873181	     38.51144279	     -4.49389245	      2.27154252	    -25.45023866	    -31.57612433	      0.00000000	      0.00000000	     27.37188753	    -15.68154621	     -6.72166506	    -68.46966192	    -14.42025022	      0.00000000	      0.00000000	      0.00000000	      0.00000000	      0.00000000
      0.03000000	     39.03770209	      1.83932258	     -3.14625450	      0.68393952	      1.06955640	     -0.32873236	     38.51913779	     -4.49010047	      2.27154160	    -25.46860403	    -31.57631710	      0.00000000	      0.00000000	     27.36648508	    -15.68458339	     -6.72967378	    -68.46469210	    -14.41589527	      0.00000000	      0.00000000	      0.00000000	      0.00000000	      0.00000000
      0.04000000	     39.03122920	      1.84078593	     -3.15232855	      0.68396287	      1.06957567	     -0.32874758	     38.52851474	     -4.49012399	      2.27082119	    -25.49084939	    -31.57620815	      0.00000000	      0.00000000	     27.36210480	    -15.68717448	     -6.73589904	    -68.46083277	    -14.41204035	      0.00000000	      0.00000000	      0.00000000	      0.00000000	      0.00000000
      0.05000000	     39.02586298	      1.84451533	     -3.15652541	      0.68398093	      1.06958790	     -0.32876846	     38.54016499	     -4.49444700	      2.26942234	    -25.51649485	    -31.57576420	      0.00000000	      0.00000000	     27.35974301	    -15.68837188	     -6.74038394	    -68.45886128	    -14.40864389	      0.00000000	      0.00000000	      0.00000000	      0.00000000	      0.00000000
      0.06000000	     39.02170078	      1.85011510	     -3.15837211	      0.68398839	      1.06958918	     -0.32878735	     38.55378612	     -4.50279825	      2.26763448	    -25.54471341	    -31.57516501	      0.00000000	      0.00000000	     27.35983704	    -15.68731053	     -6.74323640	    -68.45943327	    -14.40551315	      0.00000000	      0.00000000	      0.00000000	      0.00000000	      0.00000000
      0.07000000	     39.01810600	      1.85706207	     -3.15796941	      0.68398909	      1.06957816	     -0.32880356	     38.56826074	     -4.51399411	      2.26601774	    -25.57413209	    -31.57478743	      0.00000000	      0.00000000	     27.36222447	    -15.68385157	     -6.74456118	    -68.46284842	    -14.40239847	      0.00000000	      0.00000000	      0.00000000	      0.00000000	      0.00000000
      0.08000000	     39.01441189	      1.86475414	     -3.15591962	      0.68399212	      1.06956001	     -0.32881868	     38.58217830	     -4.52633876	      2.26533137	    -25.60274177	    -31.57507412	      0.00000000	      0.00000000	     27.36636484	    -15.67871972	     -6.74445581	    -68.46899039	    -14.39917379	      0.00000000	      0.00000000	      0.00000000	      0.00000000	      0.00000000
      0.09000000	     39.01046009	      1.87239503	     -3.15303304	      0.68400119	      1.06954587	     -0.32883194	     38.59433718	     -4.53828799	      2.26636438	    -25.62816742	    -31.57636221	      0.00000000	      0.00000000	     27.37166488	    -15.67314477	     -6.74313608	    -68.47737959	    -14.39597283	      0.00000000	      0.00000000	      0.00000000	      0.00000000	      0.00000000
      0.10000000	     39.00665345	      1.87916984	     -3.14991669	      0.68401121	      1.06954390	     -0.32884142	     38.60395961	     -4.54884948	      2.26967956	    -25.64827902	    -31.57876995	      0.00000000	      0.00000000	     27.37764280	    -15.66833660	     -6.74103497	    -68.48724745	    -14.39317697	      0.00000000	      0.00000000	      0.00000000	      0.00000000	      0.00000000
      0.11000000	     39.00358745	      1.88459704	     -3.14672294	      0.68401636	      1.06954963	     -0.32884761	     38.61065279	     -4.55759777	      2.27537229	    -25.66187679	    -31.58218260	      0.00000000	      0.00000000	     27.38381960	    -15.66506631	     -6.73869244	    -68.49759863	    -14.39123547	      0.00000000	      0.00000000	      0.00000000	      0.00000000	      0.00000000
      0.12000000	     39.00161221	      1.88868190	     -3.14329194	      0.68401489	      1.06955015	     -0.32885383	     38.61425086	     -4.56462654	      2.28297708	    -25.66912716	    -31.58630546	      0.00000000	      0.00000000	     27.38956055	    -15.66351726	     -6.73645239	    -68.50736340	    -14.39041586	      0.00000000	      0.00000000	      0.00000000	      0.00000000	      0.00000000
      0.13000000	     39.00074987	      1.89176257	     -3.13950801	      0.68400587	      1.06954095	     -0.32886169	     38.61472899	     -4.57051416	      2.29154410	    -25.67149962	    -31.59073155	      0.00000000	      0.00000000	     27.39412234	    -15.66333769	     -6.73424567	    -68.51567872	    -14.39064147	      0.00000000	      0.00000000	      0.00000000	      0.00000000	      0.00000000
      0.14000000	     39.00101015	      1.89426301	     -3.13543662	      0.68398971	      1.06953213	     -0.32886867	     38.61231005	     -4.57605180	      2.29984022	    -25.67120053	    -31.59500384	      0.00000000	      0.00000000	     27.39683001	    -15.66378314	     -6.73167160	    -68.52212180	    -14.39148989	      0.00000000	      0.00000000	      0.00000000	      0.00000000	      0.00000000
      0.15000000	     39.00264483	      1.89649867	     -3.13121493	      0.68397243	      1.06953377	     -0.32887164	     38.60760388	     -4.58182647	      2.30663331	    -25.67041152	    -31.59867788	      0.00000000	      0.00000000	     27.39717846	    -15.66400404	     -6.72829389	    -68.52675941	    -14.39233833	      0.00000000	      0.00000000	      0.00000000	      0.00000000	      0.00000000
      0.16000000	     39.00606980	      1.89854383	     -3.12705459	      0.68396080	      1.06954323	     -0.32887039	     38.60149425	     -4.58803822	      2.31096031	    -25.67072981	    -31.60138731	      0.00000000	      0.00000000	     27.39500731	    -15.66349899	     -6.72393085	    -68.52997474	    -14.39259493	      0.00000000	      0.00000000	      0.00000000	      0.00000000	      0.00000000
      0.17000000	     39.01147780	      1.90012548	     -3.12329744	      0.68395494	      1.06955013	     -0.32886695	     38.59481790	     -4.59452923	      2.31224649	    -25.67296808	    -31.60290800	      0.00000000	      0.00000000	     27.39067654	    -15.66240424	     -6.71885066	    -68.53222801	    -14.39190613	      0.00000000	      0.00000000	      0.00000000	      0.00000000	      0.00000000
      0.18000000	     39.01842526	      1.90069790	     -3.12029962	      0.68395116	      1.06954886	     -0.32886390	     38.58817754	     -4.60077747	      2.31026274	    -25.67721440	    -31.60320924	      0.00000000	      0.00000000	     27.38492426	    -15.66141102	     -6.71377544	    -68.53398478	    -14.39025384	      0.00000000	      0.00000000	      0.00000000	      0.00000000	      0.00000000
      0.19000000	     39.02589448	      1.89975191	     -3.11837379	      0.68394744	      1.06954441	     -0.32886356	     38.58202684	     -4.60593478	      2.30504824	    -25.68304481	    -31.60247529	      0.00000000	      0.00000000	     27.37859298	    -15.66145642	     -6.70962482	    -68.53573662	    -14.38791843	      0.00000000	      0.00000000	      0.00000000	      0.00000000	      0.00000000
      0.20000000	     39.03279686	      1.89697510	     -3.11788541	      0.68394382	      1.06954617	     -0.32886680	     38.57685820	     -4.60912632	      2.29692546	    -25.68979972	    -31.60108808	      0.00000000	      0.00000000	     27.37246314	    -15.66331605	     -6.70719013	    -68.53792608	    -14.38532687	      0.00000000	      0.00000000	      0.00000000	      0.00000000	      0.00000000
      0.21000000	     39.03835951	      1.89224780	     -3.11923636	      0.68394181	      1.06955656	     -0.32887343	     38.57323764	     -4.60989041	      2.28661737	    -25.69679040	    -31.59957517	      0.00000000	      0.00000000	     27.36714596	    -15.66727713	     -6.70688854	    -68.54076052	    -14.38286724	      0.00000000	      0.00000000	      0.00000000	      0.00000000	      0.00000000
      0.22000000	     39.04217218	      1.88584883	     -3.12259261	      0.68394579	      1.06956716	     -0.32888313	     38.57162909	     -4.60836300	      2.27534082	    -25.70333726	    -31.59852197	      0.00000000	      0.00000000	     27.36305551	    -15.67302768	     -6.70864044	    -68.54402319	    -14.38078640	      0.00000000	      0.00000000	      0.00000000	      0.00000000	      0.00000000
      0.23000000	     39.04410742	      1.87872281	     -3.12754639	      0.68396137	      1.06956757	     -0.32889379	     38.57221107	     -4.60512114	      2.26471558	    -25.70869424	    -31.59842834	      0.00000000	      0.00000000	     27.36050866	    -15.67968206	     -6.71197261	    -68.54701449	    -14.37922296	      0.00000000	      0.00000000	      0.00000000	      0.00000000	      0.00000000
      0.24000000	     39.04420298	      1.87231596	     -3.13306442	      0.68398618	      1.06955735	     -0.32890095	     38.57484238	     -4.60100489	      2.25643992	    -25.71207149	    -31.59951297	      0.00000000	      0.00000000	     27.35977472	    -15.68590596	     -6.71628114	    -68.54873201	    -14.37832035	      0.00000000	      0.00000000	      0.00000000	      0.00000000	      0.00000000
      0.25000000	     39.04252098	      1.86790865	     -3.13786495	      0.68400502	      1.06954711	     -0.32890172	     38.57911623	     -4.59705294	      2.25180415	    -25.71291012	    -31.60154439	      0.00000000	      0.00000000	     27.36091827	    -15.69018316	     -6.72102516	    -68.54829317	    -14.37830217	      0.00000000	      0.00000000	      0.00000000	      0.00000000	      0.00000000
      0.26000000	     39.03930493	      1.86601853	     -3.14101726	      0.68400621	      1.06954465	     -0.32889814	     38.58440382	     -4.59432330	      2.25120149	    -25.71127984	    -31.60382225	      0.00000000	      0.00000000	     27.36368992	    -15.69123080	     -6.72574985	    -68.54534129	    -14.37940912	      0.00000000	      0.00000000	      0.00000000	      0.00000000	      0.00000000
      0.27000000	     39.03540313	      1.86643081	     -3.14228551	      0.68399625	      1.06954690	     -0.32889583	     38.58997810	     -4.59352728	      2.25387673	    -25.70805200	    -31.60535943	      0.00000000	      0.00000000	     27.36759729	    -15.68849100	     -6.73000881	    -68.54018021	    -14.38172528	      0.00000000	      0.00000000	      0.00000000	      0.00000000	      0.00000000
      0.28000000	     39.03215042	      1.86855313	     -3.14192212	      0.68398736	      1.06954650	     -0.32889845	     38.59520201	     -4.59475385	      2.25807809	    -25.70465346	    -31.60518559	      0.00000000	      0.00000000	     27.37181593	    -15.68238630	     -6.73334956	    -68.53364635	    -14.38506673	      0.00000000	      0.00000000	      0.00000000	      0.00000000	      0.00000000
      0.29000000	     39.03068599	      1.87159960	     -3.14026035	      0.68398241	      1.06953911	     -0.32890369	     38.59957532	     -4.59749616	      2.26157465	    -25.70251961	    -31.60264648	      0.00000000	      0.00000000	     27.37517006	    -15.67414392	     -6.73545512	    -68.52670744	    -14.38902261	      0.00000000	      0.00000000	      0.00000000	      0.00000000	      0.00000000
